# xmcd
# 
# Track frame offsets:
#     150
#     15159
#     28019
#     40817
#     55402
#     68445
#     80787
#     95395
#     108829
#     122585
#     134326
#     149235
#     162855
#     175936
#     189865
#     203091
#     217458
#     230404
#     243521
#     261140
#     275597
#     289244
#     303159
# 
# Disc length: 4235
# 
# Revision: 1
# Processed by: cddbd v1.5.2PL0 Copyright (c) Steve Scherf et al.
# Submitted via: fre:ac v1.0.17
# 
DISCID=4e108917
DTITLE=John Steinbeck - The Grapes of Wrath [CD11)
DYEAR=1939
DGENRE=Audiobook
TTITLE0=Chapter 20.14
TTITLE1=Chapter 20.15
TTITLE2=Chapter 20.16
TTITLE3=Chapter 20.17
TTITLE4=Chapter 20.18
TTITLE5=Chapter 20.19
TTITLE6=Chapter 20.20
TTITLE7=Chapter 20.21
TTITLE8=Chapter 20.22
TTITLE9=Chapter 20.23
TTITLE10=Chapter 20.24
TTITLE11=Chapter 20.25
TTITLE12=Chapter 20.26
TTITLE13=Chapter 20.27
TTITLE14=Chapter 20.28
TTITLE15=Chapter 20.29
TTITLE16=Chapter 20.30
TTITLE17=Chapter 20.31
TTITLE18=Chapter 20.32
TTITLE19=Chapter 20.33
TTITLE20=Chapter 20.34
TTITLE21=Chapter 20.35
TTITLE22=Chapter 20.36
EXTD=The Grapes of Wrath by John Steinbeck\nread by Dylan Baker recorded books 18 CDs\nnational folk country
EXTT0=
EXTT1=
EXTT2=
EXTT3=
EXTT4=
EXTT5=
EXTT6=
EXTT7=
EXTT8=
EXTT9=
EXTT10=
EXTT11=
EXTT12=
EXTT13=
EXTT14=
EXTT15=
EXTT16=
EXTT17=
EXTT18=
EXTT19=
EXTT20=
EXTT21=
EXTT22=
PLAYORDER=
